<?xml version="1.0" standalone="no"?><!DOCTYPE svg PUBLIC "-//W3C//DTD SVG 1.1//EN" "http://www.w3.org/Graphics/SVG/1.1/DTD/svg11.dtd"><svg t="1693405118652" class="icon" viewBox="0 0 1024 1024" version="1.1" xmlns="http://www.w3.org/2000/svg" p-id="14431" xmlns:xlink="http://www.w3.org/1999/xlink" width="24" height="24"><path d="M605.577 573.33l-24.754-10.439c-8.798-137.788-25.5-198.183-84.701-235.612-17.447-11.333-51.149-63.824-70.534-69.043 5.219-7.009 134.806-65.763 178.2-84.553 13.571 50.254 33.851 118.85 59.5 184.911 52.044 133.911-57.711 214.736-57.711 214.736zM852.374 586.154c-45.631 59.052 13.868 103.788-41.606 175.367-14.017 18.043-28.93 33.85-43.991 47.122-10.14 0.149-18.938-2.386-25.947-7.755-32.508-25.35-13.868-103.788 41.606-175.366 14.166-18.343 33.254-35.044 53.385-49.211 17.299-4.473 25.65-1.938 16.553 9.843zM640.472 771.662c0 16.254-11.483 31.315-30.868 43.543-9.395 0.745-18.939 1.193-28.78 1.193-90.666 0-89.473-74.561-164.034-74.561-25.202 0 1.193-23.561 45.035-44.14h0.149c4.92-0.447 9.692-0.596 14.464-0.596 90.667 0 164.034 33.403 164.034 74.561z" fill="#E27E47" p-id="14432"></path><path d="M580.674 578.698c-54.28-0.745-163.121-16.993-203.7-120.789-34.746-88.876-49.658-103.788-94.394-148.525 144.051-23.561 341.936-98.569 298.094 269.314z" fill="#E27E47" p-id="14433"></path><path d="M342.818 203.782v44.736c65.071 0 114.431 18.432 146.708 54.784 43.708 49.225 60.127 133.293 48.887 250.069l-57.957 25.132c-3.394 0.184-8.088 0.357-13.765 0.357-117.217 0-154.832-57.067-166.839-91.134-30.292-85.633-68.811-168.051-93.214-217.401 18.983-5.652 42.641-11.675 68.549-15.957 23.724-3.88 46.474-5.849 67.616-5.85l0.015-44.736m-0.016 0c-25.824 0.001-51.255 2.579-74.835 6.436-70.386 11.632-124.517 34.746-124.517 34.746s67.702 126.157 114.228 257.682c38.292 108.647 157.128 120.951 209.014 120.951 15.199 0 24.66-1.057 24.66-1.057l88.728-38.474c0.298-1.789 0.447-3.579 0.596-5.368 36.663-307.662-105.941-374.922-237.874-374.916z" fill="#0F3944" p-id="14434"></path><path d="M553.57 158.757a2316.936 2316.936 0 0 0 7.028 26.589c19.047 70.534 39.566 134.271 60.992 189.454 34.178 87.943-21.179 144.319-38.409 159.138l-2.717 1.014c-3.823-97.474-24.543-175.403-61.745-232.055-13.382-20.587-29.33-38.838-47.552-54.375a233.188 233.188 0 0 0-29.158-21.018c36.687-31.515 79.871-54.428 111.561-68.747m31.28-60.529s-145.692 46.228-218.91 145.096c27.289 7.307 53.236 19.833 76.35 39.367 14.166 12.079 27.289 26.693 38.921 44.588 35.938 54.727 58.009 138.683 54.877 264.243l-58.455 28.333 0.895 0.895 115.867-43.246 11.184-4.175s109.754-80.825 57.711-214.736c-25.649-66.061-45.93-134.657-59.5-184.911-12.23-45.182-18.94-75.454-18.94-75.454z" fill="#0F3944" p-id="14435"></path><path d="M391.187 163.407c16.335 0 31.63 4.469 43.647 12.663-13.123 9.692-25.799 20.43-37.728 31.912-17.748-2.863-35.863-4.138-53.798-4.139a395.9 395.9 0 0 0-30.009 1.156c9.693-15.509 25.649-28.632 45.93-35.939 10.688-3.833 21.535-5.653 31.958-5.653m0.001-44.737c-15.911 0-31.745 2.786-47.063 8.28-28.985 10.443-53.384 29.733-68.762 54.338l-46.894 75.031 88.225-6.713a352.51 352.51 0 0 1 26.614-1.027c16.297 0 32 1.2 46.673 3.567l22.054 3.558 16.095-15.492c10.596-10.199 21.794-19.672 33.283-28.158l50.695-37.443-52.072-35.504c-19.609-13.37-43.416-20.437-68.848-20.437zM729.884 928.219a22.185 22.185 0 0 1-15.757-6.531c-1.646-1.638-17.322-17.745-61.731-76.956l-7.638-10.063c-22.856-29.941-46.491-60.901-56.175-118.977-13.66-81.937-56.911-135.578-57.348-136.11-7.806-9.546-6.437-23.635 3.095-31.463 9.509-7.842 23.577-6.51 31.426 3.014 2.09 2.519 51.231 62.882 66.952 157.204 7.857 47.11 26.278 71.241 47.613 99.186l7.871 10.369c42.414 56.554 57.501 72.092 57.646 72.245 8.621 8.789 8.556 22.929-0.197 31.594a22.33 22.33 0 0 1-15.757 6.488z" fill="#0F3944" p-id="14436"></path><path d="M476.438 741.837c65.171 0 105.516 18.727 117.054 29.696-1.697 1.584-4.203 3.593-7.735 5.82-18.518 11.666-56.96 24.132-109.319 24.132-30.097 0-41.629-10.612-60.735-28.193-5.072-4.668-10.59-9.746-16.773-14.774 19.977-7.631 42.738-14.067 64.816-16.085h0.255l2.019-0.183c3.101-0.282 6.412-0.413 10.418-0.413m0-44.736c-4.772 0-9.544 0.149-14.464 0.596h-0.149c-88.131 7.158-191.771 73.965-149.42 73.965 74.561 0 73.368 74.561 164.034 74.561 54.877 0 103.341-12.228 133.166-31.018 19.386-12.228 30.868-27.289 30.868-43.543-0.001-41.158-73.368-74.561-164.035-74.561z" fill="#0F3944" p-id="14437"></path><path d="M788.972 646.709c0.185 7.908 0.806 15.329 1.377 22.152 2.166 25.876 3.473 41.495-14.909 65.215-11.942 15.371-24.807 29.167-38.225 40.99-26.652 23.465-47.031 31.72-57.145 33.318-1.589-15.88 8.332-59.209 48.242-110.705 15.08-19.442 38.141-37.21 60.66-50.97m59.918-72.471c-3.367 0-7.804 0.712-13.069 2.074-34.745 8.799-105.727 46.079-142.858 93.947-55.474 71.578-74.114 150.016-41.606 175.366 6.883 5.288 15.474 7.8 25.274 7.8 25.02 0 57.893-16.386 90.146-44.782 15.061-13.272 29.974-29.079 43.991-47.122 55.474-71.579-4.026-116.316 41.606-175.367 6.329-8.196 4.214-11.917-3.484-11.916zM591.228 615.637l18.639 59.322 42.055-45.803-60.694-13.519z" fill="#0F3944" p-id="14438"></path><path d="M658.755 834.616l-15.637 60.943 60.596-16.93-44.959-44.013z" fill="#0F3944" p-id="14439"></path></svg>